<svg xmlns="http://www.w3.org/2000/svg" width="111" height="33" fill="none" xmlns:v="https://vecta.io/nano"><g clip-path="url(#D)"><g fill="#5fa04e"><path d="M97.689 32.741a1.67 1.67 0 0 1-.804-.212l-2.545-1.521c-.383-.212-.191-.289-.076-.327a4.62 4.62 0 0 0 1.148-.52c.057-.039.134-.019.191.019l1.951 1.174c.077.038.172.038.23 0l7.634-4.447c.076-.038.115-.115.115-.212V17.82c0-.096-.039-.173-.115-.212l-7.634-4.428c-.076-.039-.172-.039-.23 0l-7.634 4.428c-.077.038-.115.135-.115.212v8.875c0 .077.038.173.115.212l2.085 1.213c1.129.578 1.837-.096 1.837-.77v-8.759c0-.116.096-.231.23-.231h.976c.115 0 .23.096.23.231v8.759c0 1.521-.823 2.406-2.258 2.406-.44 0-.784 0-1.76-.481l-2.009-1.155c-.497-.289-.803-.828-.803-1.405V17.84c0-.578.306-1.117.803-1.405l7.634-4.447a1.7 1.7 0 0 1 1.607 0l7.634 4.447c.497.289.803.828.803 1.405v8.875c0 .578-.306 1.117-.803 1.405l-7.634 4.447c-.23.096-.517.173-.803.173zm2.373-6.103c-3.349 0-4.037-1.54-4.037-2.849 0-.115.096-.231.23-.231h.995c.115 0 .21.077.21.192.153 1.02.593 1.521 2.621 1.521 1.607 0 2.296-.366 2.296-1.232 0-.501-.192-.866-2.698-1.117-2.085-.212-3.386-.674-3.386-2.349 0-1.559 1.301-2.483 3.482-2.483 2.449 0 3.654.847 3.807 2.695a.31.31 0 0 1-.057.173c-.039.038-.096.077-.154.077h-1.014c-.095 0-.191-.077-.21-.173-.23-1.059-.823-1.405-2.392-1.405-1.76 0-1.971.616-1.971 1.078 0 .558.249.732 2.621 1.04 2.353.308 3.463.751 3.463 2.406 0 1.694-1.397 2.657-3.807 2.657zm11.021-9.318c0 .809-.67 1.482-1.474 1.482a1.482 1.482 0 1 1 0-2.965 1.49 1.49 0 0 1 1.474 1.482zm-2.717 0c0 .693.555 1.251 1.224 1.251a1.26 1.26 0 0 0 1.244-1.251c0-.693-.555-1.232-1.244-1.232a1.24 1.24 0 0 0-1.224 1.232zm.689-.828h.574c.191 0 .574 0 .574.443 0 .308-.192.366-.307.404.23.019.249.173.268.385.019.135.039.366.077.443h-.345c0-.077-.057-.501-.057-.52-.019-.096-.057-.135-.172-.135h-.287v.674h-.325v-1.694zm.306.732h.248c.211 0 .249-.154.249-.231 0-.231-.153-.231-.249-.231h-.267v.462h.019z"/></g><g fill-rule="evenodd"><g fill="#fff"><path d="M18.157 17.442a.98.98 0 0 0-.497-.847l-8.093-4.717a1.17 1.17 0 0 0-.44-.135H9.05c-.153 0-.306.058-.44.135L.497 16.575a.99.99 0 0 0-.497.866L.019 30.07a.48.48 0 0 0 .249.424c.153.096.344.096.478 0l4.821-2.772a.98.98 0 0 0 .497-.847v-5.91a.98.98 0 0 1 .497-.847l2.047-1.194c.153-.096.325-.135.497-.135s.344.038.478.135l2.047 1.194a.98.98 0 0 1 .497.847v5.91a.98.98 0 0 0 .497.847l4.783 2.772c.153.096.344.096.497 0a.48.48 0 0 0 .249-.424V17.442zM57.148.058c-.153-.077-.344-.077-.478 0-.153.096-.249.25-.249.424v12.513a.37.37 0 0 1-.172.308.36.36 0 0 1-.344 0l-2.028-1.174a.98.98 0 0 0-.976 0l-8.112 4.717a.98.98 0 0 0-.497.847v9.414a.98.98 0 0 0 .497.847l8.112 4.717a.98.98 0 0 0 .976 0l8.112-4.717a.98.98 0 0 0 .498-.847V3.639a.99.99 0 0 0-.498-.866L57.148.058zm-.746 23.949c0 .096-.038.173-.115.212l-2.774 1.617c-.076.038-.172.038-.249 0l-2.774-1.617c-.076-.038-.115-.135-.115-.212v-3.234c0-.096.038-.173.115-.212l2.774-1.617c.077-.038.172-.038.249 0l2.774 1.617c.077.038.115.135.115.212v3.234zm27.741-3.312c.306-.173.478-.5.478-.847v-2.291c0-.346-.191-.674-.478-.847l-8.055-4.697a.98.98 0 0 0-.976 0L67 16.729a.98.98 0 0 0-.497.847v9.414a.98.98 0 0 0 .497.847l8.055 4.62c.306.173.67.173.957 0l4.879-2.734a.48.48 0 0 0 .249-.424.48.48 0 0 0-.249-.424l-8.15-4.717c-.153-.096-.249-.25-.249-.424v-2.945a.48.48 0 0 1 .249-.424l2.545-1.463c.153-.096.344-.096.497 0l2.545 1.463c.153.096.249.25.249.424v2.31a.48.48 0 0 0 .249.423c.153.096.344.096.497 0l4.821-2.83z"/></g><path d="M75.476 20.253c.057-.039.134-.039.191 0l1.55.905c.057.038.096.096.096.173v1.81c0 .077-.038.135-.096.173l-1.55.905c-.057.038-.134.038-.191 0l-1.55-.905c-.057-.039-.096-.096-.096-.173v-1.81c0-.077.038-.135.096-.173l1.55-.905z" fill="#5fa04e"/></g><path d="M31.721 12.051a.98.98 0 0 0-.976 0l-8.055 4.678c-.306.173-.478.501-.478.847v9.375c0 .347.191.674.478.847l8.055 4.678a.98.98 0 0 0 .976 0l8.055-4.678c.306-.173.478-.5.478-.847v-9.375c0-.347-.191-.674-.478-.847l-8.055-4.678z" fill="url(#A)"/><path d="M39.795 16.729l-8.093-4.678a1.32 1.32 0 0 0-.249-.096l-9.069 15.613a1.01 1.01 0 0 0 .268.231l8.093 4.678c.23.135.497.173.746.096l8.514-15.67a.6.6 0 0 0-.21-.173z" fill="url(#B)"/><path d="M39.795 27.799c.23-.135.402-.366.478-.616l-8.858-15.247c-.23-.038-.478-.019-.689.116L22.69 16.71l8.667 15.902a1.33 1.33 0 0 0 .364-.116l8.074-4.697z" fill="url(#C)"/></g><defs><linearGradient id="A" x1="34.513" y1="15.535" x2="27.157" y2="30.448" gradientUnits="userSpaceOnUse"><stop stop-color="#3f873f"/><stop offset=".33" stop-color="#3f8b3d"/><stop offset=".637" stop-color="#3e9638"/><stop offset=".934" stop-color="#3da92e"/><stop offset="1" stop-color="#3dae2b"/></linearGradient><linearGradient id="B" x1="30.009" y1="23.359" x2="50.533" y2="8.288" gradientUnits="userSpaceOnUse"><stop offset=".138" stop-color="#3f873f"/><stop offset=".402" stop-color="#52a044"/><stop offset=".713" stop-color="#64b749"/><stop offset=".908" stop-color="#6abf4b"/></linearGradient><linearGradient id="C" x1="21.917" y1="22.261" x2="40.555" y2="22.261" gradientUnits="userSpaceOnUse"><stop offset=".092" stop-color="#6abf4b"/><stop offset=".287" stop-color="#64b749"/><stop offset=".598" stop-color="#52a044"/><stop offset=".862" stop-color="#3f873f"/></linearGradient><clipPath id="D"><path fill="#fff" d="M0 0h111v33H0z"/></clipPath></defs></svg>